<svg width="24" height="27" viewBox="0 0 24 27" fill="none" xmlns="http://www.w3.org/2000/svg">
<path d="M12 27C10.375 27 8.86875 26.6 7.48125 25.8C6.09375 25 5 23.9 4.2 22.5H0V19.5H3.15C3.075 19 3.03125 18.5 3.01875 18C3.00625 17.5 3 17 3 16.5H0V13.5H3C3 13 3.00625 12.5 3.01875 12C3.03125 11.5 3.075 11 3.15 10.5H0V7.5H4.2C4.55 6.925 4.94375 6.3875 5.38125 5.8875C5.81875 5.3875 6.325 4.95 6.9 4.575L4.5 2.1L6.6 0L9.825 3.225C10.525 3 11.2375 2.8875 11.9625 2.8875C12.6875 2.8875 13.4 3 14.1 3.225L17.4 0L19.5 2.1L17.025 4.575C17.6 4.95 18.1187 5.38125 18.5812 5.86875C19.0437 6.35625 19.45 6.9 19.8 7.5H24V10.5H20.85C20.925 11 20.9688 11.5 20.9813 12C20.9938 12.5 21 13 21 13.5H24V16.5H21C21 17 20.9938 17.5 20.9813 18C20.9688 18.5 20.925 19 20.85 19.5H24V22.5H19.8C19 23.9 17.9062 25 16.5187 25.8C15.1312 26.6 13.625 27 12 27ZM9 19.5H15V16.5H9V19.5ZM9 13.5H15V10.5H9V13.5Z" fill="white"/>
</svg>
