<svg width="384" height="384" viewBox="0 0 384 384" fill="none" xmlns="http://www.w3.org/2000/svg">
<path d="M165.2 69.072C172.016 40.976 211.984 40.976 218.8 69.072C220.874 77.6329 226.913 84.6884 235.05 88.0599C243.188 91.4315 252.447 90.7136 259.968 86.128C284.656 71.088 312.928 99.344 297.888 124.048C293.309 131.566 292.593 140.817 295.96 148.95C299.328 157.083 306.375 163.12 314.928 165.2C343.024 172.016 343.024 211.984 314.928 218.8C306.367 220.874 299.312 226.913 295.94 235.05C292.569 243.188 293.286 252.447 297.872 259.968C312.912 284.656 284.656 312.928 259.952 297.888C252.434 293.309 243.183 292.593 235.05 295.96C226.917 299.328 220.88 306.375 218.8 314.928C211.984 343.024 172.016 343.024 165.2 314.928C163.126 306.367 157.087 299.312 148.95 295.94C140.812 292.569 131.553 293.286 124.032 297.872C99.344 312.912 71.072 284.656 86.112 259.952C90.691 252.434 91.4071 243.183 88.0396 235.05C84.672 226.917 77.6251 220.88 69.072 218.8C40.976 211.984 40.976 172.016 69.072 165.2C77.6329 163.126 84.6884 157.087 88.0599 148.95C91.4315 140.812 90.7136 131.553 86.128 124.032C71.088 99.344 99.344 71.072 124.048 86.112C131.566 90.691 140.817 91.4071 148.95 88.0396C157.083 84.672 163.12 77.6251 165.2 69.072V69.072" stroke="#1E293B" stroke-width="24" stroke-linecap="round" stroke-linejoin="round"/>
<path d="M240 192C240 218.492 218.492 240 192 240C165.508 240 144 218.492 144 192C144 165.508 165.508 144 192 144C218.492 144 240 165.508 240 192V192" stroke="#1E293B" stroke-width="24" stroke-linecap="round" stroke-linejoin="round"/>
</svg>
