<svg width="31" height="24" viewBox="0 0 31 24" fill="none" xmlns="http://www.w3.org/2000/svg">
<path d="M23.1723 17.94C20.9643 19.243 18.2758 19.9649 15.4998 20C6.45817 20 1.2915 12 1.2915 12C2.8982 9.6819 5.12664 7.65661 7.82734 6.06M12.7873 4.24C13.6764 4.07888 14.5867 3.99834 15.4998 4C24.5415 4 29.7082 12 29.7082 12C28.9241 13.1356 27.989 14.2047 26.9182 15.19M18.2382 14.12C17.8834 14.4147 17.4556 14.6512 16.9803 14.8151C16.505 14.9791 15.9918 15.0673 15.4715 15.0744C14.9512 15.0815 14.4344 15.0074 13.9519 14.8565C13.4694 14.7056 13.0311 14.481 12.6631 14.1962C12.2952 13.9113 12.0051 13.5719 11.8102 13.1984C11.6153 12.8248 11.5196 12.4247 11.5288 12.0219C11.538 11.6191 11.6518 11.2218 11.8636 10.8538C12.0754 10.4859 12.3808 10.1546 12.7615 9.88M1.2915 1L29.7082 23" stroke="#9566D3" stroke-opacity="0.63" stroke-width="4" stroke-linecap="round" stroke-linejoin="round"/>
</svg>
