<svg width="10" height="12" viewBox="0 0 10 12" fill="none" xmlns="http://www.w3.org/2000/svg">
<path d="M3.5293 9.41146C3.20578 9.41146 2.92883 9.29626 2.69844 9.06588C2.46806 8.8355 2.35286 8.55854 2.35286 8.23502V1.17643C2.35286 0.852913 2.46806 0.575961 2.69844 0.345577C2.92883 0.115192 3.20578 0 3.5293 0H8.82324C9.14676 0 9.42371 0.115192 9.65409 0.345577C9.88448 0.575961 9.99967 0.852913 9.99967 1.17643V8.23502C9.99967 8.55854 9.88448 8.8355 9.65409 9.06588C9.42371 9.29626 9.14676 9.41146 8.82324 9.41146H3.5293ZM3.5293 8.23502H8.82324V1.17643H3.5293V8.23502ZM1.17643 11.7643C0.852913 11.7643 0.575961 11.6491 0.345577 11.4187C0.115192 11.1884 0 10.9114 0 10.5879V2.35286H1.17643V10.5879H7.64681V11.7643H1.17643ZM3.5293 8.23502V1.17643V8.23502Z" fill="#DCE2F3"/>
</svg>
