<svg width="24" height="24" viewBox="0 0 24 24" fill="none" xmlns="http://www.w3.org/2000/svg">
<path d="M4.62002 18.1201C5.64002 17.3401 6.78002 16.7251 8.04003 16.2751C9.30003 15.8251 10.62 15.6001 12 15.6001C13.38 15.6001 14.7001 15.8251 15.9601 16.2751C17.2201 16.7251 18.3601 17.3401 19.3801 18.1201C20.0801 17.3001 20.6251 16.3701 21.0151 15.3301C21.4051 14.29 21.6001 13.18 21.6001 12C21.6001 9.34003 20.6651 7.07502 18.7951 5.20502C16.9251 3.33501 14.6601 2.40001 12 2.40001C9.34003 2.40001 7.07502 3.33501 5.20502 5.20502C3.33501 7.07502 2.40001 9.34003 2.40001 12C2.40001 13.18 2.59501 14.29 2.98501 15.3301C3.37501 16.3701 3.92001 17.3001 4.62002 18.1201ZM12 13.2C10.82 13.2 9.82503 12.795 9.01503 11.985C8.20503 11.175 7.80003 10.18 7.80003 9.00003C7.80003 7.82003 8.20503 6.82502 9.01503 6.01502C9.82503 5.20502 10.82 4.80002 12 4.80002C13.18 4.80002 14.175 5.20502 14.9851 6.01502C15.7951 6.82502 16.2001 7.82003 16.2001 9.00003C16.2001 10.18 15.7951 11.175 14.9851 11.985C14.175 12.795 13.18 13.2 12 13.2ZM12 24.0001C10.34 24.0001 8.78003 23.6851 7.32003 23.0551C5.86002 22.4251 4.59002 21.5701 3.51001 20.4901C2.43001 19.4101 1.57501 18.1401 0.945003 16.6801C0.315001 15.2201 0 13.66 0 12C0 10.34 0.315001 8.78003 0.945003 7.32003C1.57501 5.86002 2.43001 4.59002 3.51001 3.51001C4.59002 2.43001 5.86002 1.57501 7.32003 0.945003C8.78003 0.315001 10.34 0 12 0C13.66 0 15.2201 0.315001 16.6801 0.945003C18.1401 1.57501 19.4101 2.43001 20.4901 3.51001C21.5701 4.59002 22.4251 5.86002 23.0551 7.32003C23.6851 8.78003 24.0001 10.34 24.0001 12C24.0001 13.66 23.6851 15.2201 23.0551 16.6801C22.4251 18.1401 21.5701 19.4101 20.4901 20.4901C19.4101 21.5701 18.1401 22.4251 16.6801 23.0551C15.2201 23.6851 13.66 24.0001 12 24.0001Z" fill="#5300B7"/>
</svg>
